<svg width="224" height="79" viewBox="0 0 224 79" fill="none" xmlns="http://www.w3.org/2000/svg">
<rect y="18.877" width="46" height="44.5846" fill="#E7BD9C"/>
<rect x="19.1077" y="18.877" width="7.78462" height="44.5846" fill="#C49B7C"/>
<rect x="22.6461" y="18.877" width="0.707692" height="44.5846" fill="#987B65"/>
<path d="M58.7586 44.3013V38.3202H69.9023C72.1268 38.3202 73.8477 37.7535 75.0649 36.6203C76.3241 35.4451 76.9537 33.8291 76.9537 31.7725C76.9537 29.9257 76.3451 28.3727 75.1279 27.1135C73.9107 25.8543 72.1898 25.2248 69.9653 25.2248H58.7586V18.9289H70.2801C73.0502 18.9289 75.4846 19.4955 77.5833 20.6288C79.6819 21.7201 81.2978 23.2311 82.4311 25.1618C83.6063 27.0506 84.1939 29.2121 84.1939 31.6465C84.1939 34.2069 83.6063 36.4314 82.4311 38.3202C81.2978 40.2089 79.6819 41.678 77.5833 42.7273C75.4846 43.7766 73.0502 44.3013 70.2801 44.3013H58.7586ZM53.7849 63V18.9289H61.0251V63H53.7849ZM77.961 63L62.5361 43.8605L69.2727 41.4052L87.09 63H77.961ZM102.113 63.6296C99.0906 63.6296 96.3623 62.958 93.9279 61.6149C91.5355 60.2298 89.6258 58.3411 88.1987 55.9486C86.8136 53.5562 86.1211 50.87 86.1211 47.8899C86.1211 44.9099 86.8136 42.2446 88.1987 39.8941C89.5838 37.5017 91.4516 35.6129 93.802 34.2279C96.1945 32.8428 98.8387 32.1502 101.735 32.1502C104.547 32.1502 107.023 32.8008 109.164 34.1019C111.347 35.4031 113.046 37.1869 114.264 39.4534C115.523 41.7199 116.152 44.3013 116.152 47.1974C116.152 47.701 116.11 48.2257 116.026 48.7713C115.984 49.275 115.901 49.8416 115.775 50.4712H90.9689V44.8049H112.186L109.605 47.0714C109.521 45.2246 109.164 43.6717 108.534 42.4125C107.905 41.1533 107.002 40.188 105.827 39.5164C104.694 38.8448 103.288 38.5091 101.609 38.5091C99.8461 38.5091 98.3141 38.8868 97.0129 39.6423C95.7118 40.3978 94.7044 41.4681 93.9909 42.8532C93.2774 44.1963 92.9206 45.8123 92.9206 47.701C92.9206 49.5898 93.2984 51.2477 94.0539 52.6748C94.8094 54.1018 95.8797 55.2141 97.2648 56.0116C98.6498 56.7671 100.245 57.1448 102.05 57.1448C103.603 57.1448 105.03 56.872 106.331 56.3264C107.674 55.7807 108.807 54.9833 109.731 53.9339L114.138 58.404C112.669 60.1249 110.885 61.426 108.786 62.3075C106.688 63.1889 104.463 63.6296 102.113 63.6296ZM122.982 63V20.1881H129.908V63H122.982ZM115.742 39.0757V32.7798H137.148V39.0757H115.742ZM152.065 63.6296C149.505 63.6296 147.217 63.063 145.202 61.9297C143.23 60.7964 141.677 59.2435 140.543 57.2708C139.452 55.2561 138.907 52.9476 138.907 50.3453V32.7798H145.832V50.0305C145.832 51.4995 146.063 52.7587 146.525 53.808C147.028 54.8154 147.742 55.5919 148.665 56.1375C149.631 56.6831 150.764 56.956 152.065 56.956C154.08 56.956 155.612 56.3683 156.661 55.1931C157.752 53.9759 158.298 52.255 158.298 50.0305V32.7798H165.223V50.3453C165.223 52.9896 164.657 55.319 163.523 57.3337C162.432 59.3064 160.9 60.8594 158.927 61.9927C156.955 63.0839 154.667 63.6296 152.065 63.6296ZM169.668 63V32.7798H176.594V63H169.668ZM176.594 46.19L174.201 44.9938C174.201 41.1743 175.041 38.0893 176.72 35.7389C178.441 33.3464 181.022 32.1502 184.464 32.1502C185.975 32.1502 187.339 32.423 188.556 32.9687C189.773 33.5143 190.906 34.3957 191.956 35.6129L187.423 40.2719C186.877 39.6843 186.268 39.2646 185.597 39.0127C184.925 38.7609 184.149 38.635 183.267 38.635C181.337 38.635 179.742 39.2436 178.483 40.4608C177.223 41.678 176.594 43.5877 176.594 46.19ZM213.502 63V45.5604C213.502 43.5458 212.851 41.8878 211.55 40.5867C210.291 39.2855 208.654 38.635 206.639 38.635C205.296 38.635 204.1 38.9288 203.051 39.5164C202.001 40.104 201.183 40.9225 200.595 41.9718C200.008 43.0211 199.714 44.2173 199.714 45.5604L197.007 44.0494C197.007 41.7409 197.51 39.7053 198.518 37.9424C199.525 36.1376 200.91 34.7315 202.673 33.7242C204.478 32.6749 206.492 32.1502 208.717 32.1502C210.983 32.1502 212.998 32.7378 214.761 33.9131C216.524 35.0463 217.909 36.5363 218.916 38.3831C219.924 40.188 220.427 42.0767 220.427 44.0494V63H213.502ZM192.788 63V32.7798H199.714V63H192.788Z" fill="black"/>
</svg>
